<?xml version="1.0" encoding="UTF-8" standalone="no"?>
<svg width="247px" height="35px" viewBox="0 0 247 35" version="1.1" xmlns="http://www.w3.org/2000/svg" xmlns:xlink="http://www.w3.org/1999/xlink">
    <!-- Generator: Sketch 3.8.3 (29802) - http://www.bohemiancoding.com/sketch -->
    <title>Group</title>
    <desc>Created with Sketch.</desc>
    <defs></defs>
    <g id="Page-1" stroke="none" stroke-width="1" fill="none" fill-rule="evenodd">
        <g id="Group" fill="#FFFFFF">
            <path d="M201.93,24.53 C201.6,26.4 201.53,27.99 204.46,27.99 C207.92,27.99 212.71,26.39 216.91,24.26 L218.64,30.38 C213.985479,33.0785388 208.719369,34.5447892 203.34,34.64 C194.75,34.64 193.02,29.85 194.22,23.06 L195.95,13.21 C197.35,5.56 200.95,0.9 210.72,0.9 C216.91,0.9 221.1,4.1 221.1,9.35 C221.1,15.14 217.31,18.46 208.46,21.19 C204.54,22.39 203.74,22.59 202.21,22.99 L201.93,24.53 Z M213.44,9.69 C213.44,8.22 212.18,7.16 210.05,7.16 C206.39,7.16 204.59,9.42 204.05,12.49 L203.45,15.82 C204.58,15.49 205.05,15.35 208.31,14.36 C211.91,13.22 213.44,11.82 213.44,9.69 L213.44,9.69 Z" id="Shape"></path>
            <path d="M42.48,1.16 L42.48,23.79 C42.48,25.52 43.21,26.39 45.08,26.39 C46.95,26.39 50.6,25.19 53.53,23.66 L53.53,1.16 L61.65,1.16 L61.65,33.57 L55.46,33.57 L54.66,30.84 C50.6104859,32.8642005 46.1823226,34.0189293 41.66,34.23 C36.27,34.23 34.34,30.44 34.34,24.64 L34.34,1.16 L42.48,1.16 Z" id="Shape"></path>
            <path d="M88.33,33.67 L88.33,11 C88.33,9.27 87.59,8.41 85.73,8.41 C83.87,8.41 80.2,9.61 77.28,11.14 L77.28,33.67 L69.17,33.67 L69.17,1.26 L75.36,1.26 L76.15,4 C80.198439,1.9714992 84.6268182,0.813307697 89.15,0.6 C92.28,0.6 94.21,1.86 95.27,4.06 C99.3070069,1.99279609 103.739508,0.813068867 108.27,0.6 C113.66,0.6 115.59,4.39 115.59,10.18 L115.59,33.67 L107.5,33.67 L107.5,11 C107.5,9.27 106.77,8.41 104.9,8.41 C101.923864,8.7212012 99.0456443,9.65108769 96.45,11.14 L96.45,33.67 L88.33,33.67 Z" id="Shape"></path>
            <path d="M157.46,33.67 L157.46,11 C157.46,9.27 156.73,8.41 154.87,8.41 C153.01,8.41 149.35,9.61 146.42,11.14 L146.42,33.67 L138.3,33.67 L138.3,1.26 L144.49,1.26 L145.29,3.99 C149.338648,1.96205532 153.766908,0.803895128 158.29,0.59 C163.68,0.59 165.61,4.38 165.61,10.17 L165.61,33.67 L157.46,33.67 Z" id="Shape"></path>
            <path d="M225.11,21.88 L225.11,13 C225.11,4.28 228.9,0.56 239.11,0.56 C241.785257,0.590944526 244.442271,1.00515576 247,1.79 L246,8.45 C243.800656,7.90516481 241.545668,7.61658001 239.28,7.59 C234.62,7.59 233.22,8.99 233.22,12.98 L233.22,21.98 C233.22,25.98 234.62,27.37 239.28,27.37 C241.546972,27.3627393 243.80426,27.0738602 246,26.51 L247,33.17 C244.434957,33.9642151 241.765186,34.3687258 239.08,34.37 C228.9,34.33 225.11,30.6 225.11,21.88 L225.11,21.88 Z" id="Shape"></path>
            <path d="M122.68,7.92 L122.68,0.77 L130.8,0.77 L130.8,7.92 L122.68,7.92 Z M122.68,33.67 L122.68,11.11 L130.8,11.11 L130.8,33.67 L122.68,33.67 Z" id="Shape"></path>
            <polygon id="Shape" points="185 7.53 185 33.67 177.22 33.67 177.22 7.53 167.9 7.53 167.9 1 194.25 1 194.25 7.53"></polygon>
            <polygon id="Shape" points="7.75 14.58 7.75 33.67 0 33.67 0 1 9 1 19 21.29 19 1 26.77 1 26.77 33.67 17.71 33.67"></polygon>
            <path d="M201.93,24.53 C201.6,26.4 201.53,27.99 204.46,27.99 C207.92,27.99 212.71,26.39 216.91,24.26 L218.64,30.38 C213.985479,33.0785388 208.719369,34.5447892 203.34,34.64 C194.75,34.64 193.02,29.85 194.22,23.06 L195.95,13.21 C197.35,5.56 200.95,0.9 210.72,0.9 C216.91,0.9 221.1,4.1 221.1,9.35 C221.1,15.14 217.31,18.46 208.46,21.19 C204.54,22.39 203.74,22.59 202.21,22.99 L201.93,24.53 Z M213.44,9.69 C213.44,8.22 212.18,7.16 210.05,7.16 C206.39,7.16 204.59,9.42 204.05,12.49 L203.45,15.82 C204.58,15.49 205.05,15.35 208.31,14.36 C211.91,13.22 213.44,11.82 213.44,9.69 L213.44,9.69 Z" id="Shape"></path>
            <path d="M42.48,1.16 L42.48,23.79 C42.48,25.52 43.21,26.39 45.08,26.39 C46.95,26.39 50.6,25.19 53.53,23.66 L53.53,1.16 L61.65,1.16 L61.65,33.57 L55.46,33.57 L54.66,30.84 C50.6104859,32.8642005 46.1823226,34.0189293 41.66,34.23 C36.27,34.23 34.34,30.44 34.34,24.64 L34.34,1.16 L42.48,1.16 Z" id="Shape"></path>
            <path d="M88.33,33.67 L88.33,11 C88.33,9.27 87.59,8.41 85.73,8.41 C83.87,8.41 80.2,9.61 77.28,11.14 L77.28,33.67 L69.17,33.67 L69.17,1.26 L75.36,1.26 L76.15,4 C80.198439,1.9714992 84.6268182,0.813307697 89.15,0.6 C92.28,0.6 94.21,1.86 95.27,4.06 C99.3070069,1.99279609 103.739508,0.813068867 108.27,0.6 C113.66,0.6 115.59,4.39 115.59,10.18 L115.59,33.67 L107.5,33.67 L107.5,11 C107.5,9.27 106.77,8.41 104.9,8.41 C101.923864,8.7212012 99.0456443,9.65108769 96.45,11.14 L96.45,33.67 L88.33,33.67 Z" id="Shape"></path>
            <path d="M157.46,33.67 L157.46,11 C157.46,9.27 156.73,8.41 154.87,8.41 C153.01,8.41 149.35,9.61 146.42,11.14 L146.42,33.67 L138.3,33.67 L138.3,1.26 L144.49,1.26 L145.29,3.99 C149.338648,1.96205532 153.766908,0.803895128 158.29,0.59 C163.68,0.59 165.61,4.38 165.61,10.17 L165.61,33.67 L157.46,33.67 Z" id="Shape"></path>
            <path d="M225.11,21.88 L225.11,13 C225.11,4.28 228.9,0.56 239.11,0.56 C241.785257,0.590944526 244.442271,1.00515576 247,1.79 L246,8.45 C243.800656,7.90516481 241.545668,7.61658001 239.28,7.59 C234.62,7.59 233.22,8.99 233.22,12.98 L233.22,21.98 C233.22,25.98 234.62,27.37 239.28,27.37 C241.546972,27.3627393 243.80426,27.0738602 246,26.51 L247,33.17 C244.434957,33.9642151 241.765186,34.3687258 239.08,34.37 C228.9,34.33 225.11,30.6 225.11,21.88 L225.11,21.88 Z" id="Shape"></path>
            <path d="M122.68,7.92 L122.68,0.77 L130.8,0.77 L130.8,7.92 L122.68,7.92 Z M122.68,33.67 L122.68,11.11 L130.8,11.11 L130.8,33.67 L122.68,33.67 Z" id="Shape"></path>
            <polygon id="Shape" points="185 7.53 185 33.67 177.22 33.67 177.22 7.53 167.9 7.53 167.9 1 194.25 1 194.25 7.53"></polygon>
            <polygon id="Shape" points="7.75 14.58 7.75 33.67 0 33.67 0 1 9 1 19 21.29 19 1 26.77 1 26.77 33.67 17.71 33.67"></polygon>
        </g>
    </g>
</svg>